# xmcd
#
# Track frame offsets:
#	150
#	15092
#	27630
#	47565
#	71285
#	85875
#	100505
#	116650
#	133895
#	154507
#	166845
#	183945
#	202617
#	224265
#	239257
#
# Disc length: 3355 seconds
#
# Revision: 0
# Processed by: cddbd v1.5.1PL2 Copyright (c) Steve Scherf et al.
# Submitted via: audiograbber 1.83.01
#
DISCID=b30d190f
DTITLE=Sound Choice Karaoke - SC8412
DYEAR=1900
DGENRE=Karaoke Country
TTITLE0=Lynn, Loretta - Out Of My Head And Into My Bed
TTITLE1=Wynette, Tammy - Good Lovin' Makes It Right
TTITLE2=Alabama - You've Got The Touch
TTITLE3=Alabama - Take ME Down
TTITLE4=Clark, Roy - Come Live With Me
TTITLE5=Rich, Charlie - Very Special Love Song
TTITLE6=Harris, Emmylou - On Our Last Date (Lost His Love)
TTITLE7=Twitty, Conway - I Want To Know You Before We Make Love
TTITLE8=Conley, Earl Thomas - What She Is (Is A Woman In Love)
TTITLE9=Gilley, Mickey - She's Pulling Me Back Again
TTITLE10=Cash, Rosanne - Seven Year Ache
TTITLE11=Carter, Carlene - I Fell In Love
TTITLE12=Bellamy Brothers - World's Greatest Lover
TTITLE13=Van Shelton, Ricky - I'll Leave This World Loving You
TTITLE14=Boone, Debby - Are You On The Road To Lovin' Me Again
EXTD=
EXTT0=
EXTT1=
EXTT2=
EXTT3=
EXTT4=
EXTT5=
EXTT6=
EXTT7=
EXTT8=
EXTT9=
EXTT10=
EXTT11=
EXTT12=
EXTT13=
EXTT14=
PLAYORDER=
